<svg xmlns="http://www.w3.org/2000/svg" version="1.1" width="143" height="59" viewBox="0 0 143 59">
<g transform="matrix(1.1153837,0,0,1.1153837,-8.634189,-8.0780623)">
<path d="m 8.797,8.587 h 5.904 c 0.736,0 1.42,0.088 2.052,0.264 0.632,0.176 1.176,0.436 1.632,0.78 0.456,0.345 0.816,0.784 1.08,1.32 0.264,0.536 0.396,1.164 0.396,1.884 0,0.976 -0.272,1.772 -0.816,2.388 -0.544,0.616 -1.248,1.068 -2.112,1.356 v 0.048 c 0.512,0.032 0.992,0.165 1.44,0.396 0.448,0.232 0.836,0.537 1.164,0.912 0.328,0.376 0.588,0.813 0.78,1.308 0.192,0.496 0.288,1.032 0.288,1.608 0,0.768 -0.156,1.444 -0.468,2.028 -0.312,0.584 -0.74,1.077 -1.284,1.476 -0.544,0.4 -1.176,0.705 -1.896,0.912 -0.72,0.208 -1.497,0.312 -2.328,0.312 H 8.797 V 8.587 z m 2.304,7.057 h 3.144 c 0.432,0 0.84,-0.044 1.224,-0.132 0.384,-0.088 0.72,-0.236 1.008,-0.444 0.288,-0.208 0.516,-0.472 0.684,-0.792 0.168,-0.32 0.252,-0.711 0.252,-1.176 0,-0.672 -0.216,-1.256 -0.648,-1.752 -0.432,-0.496 -1.112,-0.744 -2.04,-0.744 h -3.624 v 5.04 z m 0,7.919 h 3.384 c 0.352,0 0.74,-0.036 1.164,-0.108 0.424,-0.072 0.82,-0.216 1.188,-0.432 0.368,-0.216 0.68,-0.508 0.936,-0.876 0.255,-0.368 0.384,-0.855 0.384,-1.464 0,-1.008 -0.328,-1.764 -0.984,-2.268 -0.656,-0.504 -1.544,-0.756 -2.664,-0.756 h -3.408 v 5.904 z" style="fill:#0962ac" />
<path d="m 23.365,14.204 h 2.16 v 1.752 h 0.048 c 0.144,-0.304 0.336,-0.58 0.576,-0.828 0.24,-0.248 0.508,-0.459 0.804,-0.636 0.296,-0.176 0.62,-0.316 0.972,-0.42 0.352,-0.104 0.704,-0.156 1.056,-0.156 0.352,0 0.672,0.048 0.96,0.144 l -0.096,2.328 C 29.669,16.34 29.493,16.3 29.317,16.268 29.141,16.236 28.965,16.22 28.789,16.22 c -1.056,0 -1.864,0.296 -2.424,0.888 -0.56,0.592 -0.84,1.512 -0.84,2.76 v 5.712 h -2.16 V 14.204 z" style="fill:#0962ac" />
<path d="m 31.909,10.124 c 0,-0.432 0.156,-0.804 0.468,-1.116 0.312,-0.312 0.684,-0.468 1.116,-0.468 0.432,0 0.804,0.156 1.116,0.468 0.312,0.312 0.468,0.684 0.468,1.116 0,0.432 -0.156,0.804 -0.468,1.116 -0.312,0.312 -0.684,0.468 -1.116,0.468 -0.432,0 -0.804,-0.156 -1.116,-0.468 -0.312,-0.312 -0.468,-0.684 -0.468,-1.116 z m 0.504,4.08 h 2.16 V 25.58 h -2.16 V 14.204 z" style="fill:#0962ac" />
<path d="m 44.053,17.06 c -0.256,-0.32 -0.572,-0.588 -0.948,-0.804 -0.376,-0.216 -0.836,-0.324 -1.38,-0.324 -0.512,0 -0.957,0.108 -1.332,0.324 -0.376,0.216 -0.564,0.532 -0.564,0.948 0,0.336 0.108,0.608 0.324,0.816 0.216,0.208 0.472,0.376 0.768,0.504 0.296,0.128 0.612,0.225 0.948,0.288 0.336,0.064 0.624,0.12 0.864,0.168 0.464,0.112 0.9,0.249 1.308,0.408 0.408,0.16 0.76,0.368 1.056,0.624 0.296,0.256 0.528,0.568 0.696,0.936 0.168,0.368 0.252,0.816 0.252,1.344 0,0.64 -0.136,1.188 -0.408,1.644 -0.272,0.456 -0.624,0.828 -1.056,1.116 -0.432,0.288 -0.924,0.496 -1.476,0.624 -0.552,0.127 -1.108,0.192 -1.668,0.192 -0.944,0 -1.772,-0.144 -2.484,-0.432 -0.712,-0.288 -1.348,-0.816 -1.908,-1.584 l 1.632,-1.344 c 0.352,0.352 0.744,0.664 1.176,0.936 0.432,0.272 0.96,0.408 1.584,0.408 0.272,0 0.548,-0.028 0.828,-0.084 0.28,-0.056 0.528,-0.144 0.744,-0.264 0.216,-0.12 0.392,-0.271 0.528,-0.456 0.136,-0.184 0.204,-0.396 0.204,-0.636 0,-0.32 -0.1,-0.584 -0.3,-0.792 -0.2,-0.208 -0.44,-0.372 -0.72,-0.492 -0.28,-0.12 -0.576,-0.216 -0.888,-0.288 -0.312,-0.072 -0.588,-0.132 -0.828,-0.18 -0.464,-0.112 -0.904,-0.24 -1.32,-0.384 -0.417,-0.144 -0.784,-0.336 -1.104,-0.576 -0.32,-0.24 -0.576,-0.544 -0.768,-0.912 -0.192,-0.368 -0.288,-0.824 -0.288,-1.368 0,-0.592 0.124,-1.107 0.372,-1.548 0.248,-0.44 0.576,-0.804 0.984,-1.092 0.408,-0.288 0.872,-0.504 1.392,-0.648 0.52,-0.144 1.044,-0.216 1.572,-0.216 0.768,0 1.503,0.144 2.208,0.432 0.704,0.288 1.264,0.768 1.68,1.44 l -1.68,1.272 z" style="fill:#0962ac" />
<path d="m 48.66,7.436 h 2.16 v 8.4 h 0.048 c 0.384,-0.592 0.936,-1.06 1.656,-1.404 0.72,-0.344 1.488,-0.516 2.304,-0.516 0.88,0 1.676,0.152 2.388,0.456 0.712,0.304 1.32,0.724 1.824,1.26 0.504,0.537 0.892,1.168 1.164,1.896 0.272,0.728 0.408,1.516 0.408,2.364 0,0.848 -0.136,1.632 -0.408,2.352 -0.272,0.72 -0.66,1.352 -1.164,1.896 -0.504,0.544 -1.112,0.968 -1.824,1.272 -0.712,0.304 -1.508,0.456 -2.388,0.456 -0.768,0 -1.516,-0.168 -2.244,-0.504 -0.729,-0.336 -1.3,-0.808 -1.716,-1.416 H 50.82 V 25.58 H 48.66 V 7.436 z m 5.904,16.416 c 0.576,0 1.096,-0.1 1.56,-0.3 0.464,-0.2 0.855,-0.472 1.176,-0.816 0.32,-0.344 0.568,-0.759 0.744,-1.248 0.176,-0.488 0.264,-1.02 0.264,-1.596 0,-0.576 -0.088,-1.108 -0.264,-1.596 -0.176,-0.488 -0.424,-0.904 -0.744,-1.248 -0.32,-0.344 -0.712,-0.616 -1.176,-0.816 -0.464,-0.2 -0.984,-0.3 -1.56,-0.3 -0.576,0 -1.096,0.1 -1.56,0.3 -0.464,0.2 -0.856,0.472 -1.176,0.816 -0.32,0.344 -0.568,0.76 -0.744,1.248 -0.176,0.488 -0.264,1.02 -0.264,1.596 0,0.576 0.088,1.108 0.264,1.596 0.176,0.488 0.424,0.904 0.744,1.248 0.32,0.345 0.712,0.616 1.176,0.816 0.464,0.2 0.984,0.3 1.56,0.3 z" style="fill:#0962ac" />
<path d="m 63.373,15.596 c 0.608,-0.56 1.312,-0.98 2.112,-1.26 0.8,-0.28 1.6,-0.42 2.4,-0.42 0.832,0 1.548,0.104 2.148,0.312 0.6,0.208 1.092,0.488 1.476,0.84 0.384,0.353 0.668,0.756 0.852,1.212 0.184,0.456 0.276,0.932 0.276,1.428 v 5.808 c 0,0.4 0.008,0.768 0.024,1.104 0.016,0.336 0.04,0.656 0.072,0.96 h -1.92 c -0.048,-0.576 -0.072,-1.152 -0.072,-1.728 h -0.048 c -0.48,0.736 -1.048,1.256 -1.704,1.56 -0.656,0.304 -1.416,0.456 -2.28,0.456 -0.528,0 -1.032,-0.072 -1.512,-0.216 -0.48,-0.144 -0.9,-0.36 -1.26,-0.648 -0.36,-0.288 -0.645,-0.644 -0.852,-1.068 -0.208,-0.424 -0.312,-0.916 -0.312,-1.476 0,-0.736 0.164,-1.352 0.492,-1.848 0.328,-0.496 0.776,-0.9 1.344,-1.212 0.568,-0.312 1.232,-0.536 1.992,-0.672 0.76,-0.136 1.572,-0.204 2.436,-0.204 h 1.584 v -0.48 c 0,-0.288 -0.057,-0.576 -0.168,-0.864 -0.111,-0.288 -0.28,-0.548 -0.504,-0.78 -0.224,-0.231 -0.504,-0.416 -0.84,-0.552 -0.336,-0.136 -0.736,-0.204 -1.2,-0.204 -0.416,0 -0.78,0.04 -1.092,0.12 -0.312,0.08 -0.596,0.18 -0.852,0.3 -0.256,0.12 -0.488,0.26 -0.696,0.42 -0.208,0.16 -0.408,0.312 -0.6,0.456 l -1.296,-1.344 z m 6.095,4.511 c -0.512,0 -1.036,0.028 -1.572,0.084 -0.536,0.057 -1.024,0.165 -1.464,0.324 -0.44,0.16 -0.8,0.384 -1.08,0.672 -0.28,0.288 -0.42,0.656 -0.42,1.104 0,0.656 0.22,1.128 0.66,1.416 0.44,0.288 1.036,0.432 1.788,0.432 0.592,0 1.096,-0.1 1.512,-0.3 0.416,-0.2 0.751,-0.459 1.008,-0.78 0.256,-0.32 0.44,-0.676 0.552,-1.068 0.112,-0.392 0.168,-0.78 0.168,-1.164 v -0.72 h -1.152 z" style="fill:#0962ac" />
<path d="m 75.78,14.204 h 2.16 v 1.752 h 0.048 c 0.272,-0.608 0.744,-1.1 1.416,-1.476 0.672,-0.375 1.448,-0.564 2.328,-0.564 0.544,0 1.068,0.084 1.572,0.252 0.504,0.168 0.944,0.428 1.32,0.78 0.375,0.352 0.676,0.804 0.9,1.356 0.224,0.552 0.336,1.204 0.336,1.956 v 7.32 H 83.7 v -6.72 c 0,-0.528 -0.072,-0.979 -0.216,-1.356 -0.144,-0.375 -0.336,-0.68 -0.576,-0.912 -0.24,-0.232 -0.516,-0.4 -0.828,-0.504 -0.312,-0.104 -0.636,-0.156 -0.972,-0.156 -0.448,0 -0.864,0.072 -1.248,0.216 -0.384,0.144 -0.72,0.372 -1.008,0.684 -0.288,0.312 -0.512,0.708 -0.672,1.188 -0.16,0.48 -0.24,1.048 -0.24,1.704 V 25.58 H 75.78 V 14.204 z" style="fill:#0962ac" />
<path d="m 90.756,20.684 c 0,0.496 0.108,0.948 0.324,1.356 0.216,0.408 0.5,0.756 0.852,1.044 0.352,0.288 0.76,0.512 1.224,0.672 0.464,0.16 0.944,0.24 1.44,0.24 0.672,0 1.256,-0.156 1.752,-0.468 0.496,-0.312 0.952,-0.724 1.368,-1.236 l 1.632,1.248 c -1.2,1.552 -2.88,2.328 -5.04,2.328 -0.896,0 -1.708,-0.152 -2.436,-0.456 -0.728,-0.304 -1.344,-0.724 -1.848,-1.26 -0.504,-0.536 -0.893,-1.167 -1.164,-1.896 -0.272,-0.728 -0.408,-1.516 -0.408,-2.364 0,-0.848 0.148,-1.636 0.444,-2.364 0.296,-0.728 0.704,-1.36 1.224,-1.896 0.52,-0.536 1.14,-0.956 1.86,-1.26 0.72,-0.304 1.504,-0.456 2.352,-0.456 1.008,0 1.86,0.176 2.556,0.528 0.696,0.353 1.268,0.813 1.716,1.38 0.448,0.567 0.772,1.208 0.972,1.92 0.2,0.712 0.3,1.436 0.3,2.172 v 0.768 h -9.12 z m 6.816,-1.728 c -0.016,-0.48 -0.092,-0.92 -0.228,-1.32 -0.136,-0.4 -0.34,-0.748 -0.612,-1.044 -0.272,-0.296 -0.612,-0.528 -1.02,-0.696 -0.408,-0.168 -0.884,-0.252 -1.428,-0.252 -0.528,0 -1.012,0.1 -1.452,0.3 -0.44,0.201 -0.812,0.46 -1.116,0.78 -0.304,0.32 -0.54,0.676 -0.708,1.068 -0.168,0.393 -0.252,0.78 -0.252,1.164 h 6.816 z" style="fill:#0962ac" />
<path d="m 20.629,41.06 c -0.48,-0.624 -1.088,-1.104 -1.824,-1.44 -0.736,-0.336 -1.496,-0.504 -2.28,-0.504 -0.96,0 -1.828,0.18 -2.604,0.54 -0.776,0.36 -1.44,0.852 -1.992,1.476 -0.552,0.624 -0.98,1.356 -1.284,2.196 -0.304,0.84 -0.456,1.74 -0.456,2.7 0,0.896 0.144,1.744 0.432,2.544 0.288,0.8 0.704,1.504 1.248,2.112 0.544,0.608 1.208,1.088 1.992,1.44 0.784,0.352 1.672,0.528 2.664,0.528 0.976,0 1.832,-0.2 2.568,-0.6 0.736,-0.399 1.36,-0.96 1.872,-1.68 l 1.944,1.464 c -0.128,0.176 -0.352,0.428 -0.672,0.756 -0.32,0.328 -0.744,0.656 -1.272,0.984 -0.528,0.328 -1.164,0.616 -1.908,0.864 -0.744,0.248 -1.604,0.372 -2.58,0.372 -1.344,0 -2.556,-0.256 -3.636,-0.768 -1.08,-0.512 -2,-1.184 -2.76,-2.016 -0.76,-0.832 -1.34,-1.772 -1.74,-2.82 -0.4,-1.048 -0.6,-2.108 -0.6,-3.18 0,-1.312 0.216,-2.524 0.648,-3.636 0.432,-1.112 1.036,-2.072 1.812,-2.88 0.776,-0.808 1.708,-1.436 2.796,-1.884 1.088,-0.448 2.288,-0.672 3.6,-0.672 1.12,0 2.22,0.216 3.3,0.648 1.08,0.432 1.964,1.096 2.652,1.992 l -1.92,1.464 z" style="fill:#0962ac" />
<path d="m 24.805,38.923 c 0,-0.432 0.156,-0.804 0.468,-1.116 0.312,-0.312 0.684,-0.468 1.116,-0.468 0.432,0 0.804,0.156 1.116,0.468 0.312,0.312 0.468,0.684 0.468,1.116 0,0.432 -0.156,0.804 -0.468,1.116 -0.312,0.312 -0.684,0.468 -1.116,0.468 -0.432,0 -0.804,-0.156 -1.116,-0.468 -0.312,-0.312 -0.468,-0.684 -0.468,-1.116 z m 0.504,4.08 h 2.16 v 11.376 h -2.16 V 43.003 z" style="fill:#0962ac" />
<path d="m 36.997,44.875 h -3.096 v 5.16 c 0,0.32 0.008,0.636 0.024,0.948 0.016,0.312 0.076,0.592 0.18,0.84 0.104,0.249 0.264,0.448 0.48,0.6 0.216,0.152 0.532,0.228 0.948,0.228 0.255,0 0.52,-0.024 0.792,-0.072 0.271,-0.048 0.52,-0.136 0.744,-0.264 v 1.968 c -0.256,0.144 -0.588,0.244 -0.996,0.3 -0.408,0.056 -0.724,0.084 -0.948,0.084 -0.832,0 -1.476,-0.116 -1.932,-0.348 -0.456,-0.232 -0.792,-0.532 -1.008,-0.9 -0.216,-0.368 -0.344,-0.78 -0.384,-1.236 -0.041,-0.456 -0.06,-0.916 -0.06,-1.38 v -5.928 h -2.496 v -1.872 h 2.496 v -3.192 h 2.16 v 3.192 h 3.096 v 1.872 z" style="fill:#0962ac" />
<path d="m 38.413,43.003 h 2.496 l 3.384,8.88 h 0.048 l 3.216,-8.88 h 2.328 l -5.4,13.824 c -0.192,0.496 -0.392,0.948 -0.6,1.356 -0.208,0.408 -0.456,0.756 -0.744,1.044 -0.288,0.288 -0.636,0.512 -1.044,0.672 -0.408,0.16 -0.909,0.24 -1.5,0.24 -0.32,0 -0.645,-0.02 -0.972,-0.06 -0.328,-0.041 -0.645,-0.125 -0.948,-0.252 l 0.264,-1.968 c 0.432,0.176 0.864,0.264 1.296,0.264 0.336,0 0.62,-0.044 0.852,-0.132 0.232,-0.088 0.432,-0.216 0.6,-0.384 0.168,-0.168 0.308,-0.364 0.42,-0.588 0.112,-0.225 0.224,-0.48 0.336,-0.768 l 0.696,-1.8 -4.728,-11.448 z" style="fill:#0962ac" />
<path d="m 70.837,41.06 c -0.48,-0.624 -1.088,-1.104 -1.824,-1.44 -0.736,-0.336 -1.496,-0.504 -2.28,-0.504 -0.96,0 -1.828,0.18 -2.604,0.54 -0.776,0.36 -1.44,0.852 -1.992,1.476 -0.552,0.624 -0.98,1.356 -1.284,2.196 -0.304,0.84 -0.456,1.74 -0.456,2.7 0,0.896 0.144,1.744 0.432,2.544 0.288,0.8 0.704,1.504 1.248,2.112 0.544,0.608 1.208,1.088 1.992,1.44 0.784,0.352 1.672,0.528 2.664,0.528 0.976,0 1.832,-0.2 2.568,-0.6 0.736,-0.399 1.36,-0.96 1.872,-1.68 l 1.944,1.464 c -0.128,0.176 -0.352,0.428 -0.672,0.756 -0.32,0.328 -0.744,0.656 -1.272,0.984 -0.528,0.328 -1.164,0.616 -1.908,0.864 -0.744,0.248 -1.604,0.372 -2.58,0.372 -1.344,0 -2.556,-0.256 -3.636,-0.768 -1.08,-0.512 -2,-1.184 -2.76,-2.016 -0.76,-0.832 -1.34,-1.772 -1.74,-2.82 -0.4,-1.048 -0.6,-2.108 -0.6,-3.18 0,-1.312 0.216,-2.524 0.648,-3.636 0.432,-1.112 1.036,-2.072 1.812,-2.88 0.776,-0.808 1.708,-1.436 2.796,-1.884 1.088,-0.448 2.288,-0.672 3.6,-0.672 1.12,0 2.22,0.216 3.3,0.648 1.08,0.432 1.964,1.096 2.652,1.992 l -1.92,1.464 z" style="fill:#0962ac" />
<path d="m 74.797,48.691 c 0,-0.832 0.156,-1.608 0.468,-2.328 0.312,-0.72 0.74,-1.352 1.284,-1.896 0.544,-0.543 1.184,-0.972 1.92,-1.284 0.736,-0.312 1.528,-0.468 2.376,-0.468 0.848,0 1.64,0.156 2.376,0.468 0.736,0.312 1.376,0.74 1.92,1.284 0.544,0.544 0.972,1.176 1.284,1.896 0.312,0.72 0.468,1.497 0.468,2.328 0,0.832 -0.156,1.612 -0.468,2.34 -0.312,0.729 -0.74,1.36 -1.284,1.896 -0.544,0.537 -1.184,0.96 -1.92,1.272 -0.736,0.312 -1.528,0.468 -2.376,0.468 -0.848,0 -1.64,-0.156 -2.376,-0.468 -0.736,-0.312 -1.376,-0.735 -1.92,-1.272 -0.544,-0.536 -0.972,-1.167 -1.284,-1.896 -0.312,-0.727 -0.468,-1.508 -0.468,-2.34 z m 2.304,0 c 0,0.576 0.088,1.108 0.264,1.596 0.176,0.488 0.424,0.904 0.744,1.248 0.32,0.345 0.711,0.616 1.176,0.816 0.464,0.2 0.984,0.3 1.56,0.3 0.576,0 1.096,-0.1 1.56,-0.3 0.464,-0.2 0.856,-0.472 1.176,-0.816 0.32,-0.344 0.568,-0.759 0.744,-1.248 0.176,-0.488 0.264,-1.02 0.264,-1.596 0,-0.576 -0.088,-1.108 -0.264,-1.596 -0.176,-0.488 -0.424,-0.904 -0.744,-1.248 -0.32,-0.344 -0.712,-0.616 -1.176,-0.816 -0.464,-0.2 -0.984,-0.3 -1.56,-0.3 -0.576,0 -1.096,0.1 -1.56,0.3 -0.464,0.2 -0.856,0.472 -1.176,0.816 -0.32,0.344 -0.568,0.76 -0.744,1.248 -0.177,0.488 -0.264,1.02 -0.264,1.596 z" style="fill:#0962ac" />
<path d="m 99.685,54.379 h -2.16 v -1.752 h -0.048 c -0.272,0.608 -0.744,1.1 -1.416,1.476 -0.672,0.375 -1.448,0.564 -2.328,0.564 -0.56,0 -1.088,-0.084 -1.584,-0.252 -0.496,-0.168 -0.932,-0.428 -1.308,-0.78 -0.376,-0.352 -0.676,-0.804 -0.9,-1.356 -0.224,-0.552 -0.336,-1.204 -0.336,-1.956 v -7.32 h 2.16 v 6.72 c 0,0.528 0.072,0.98 0.216,1.356 0.144,0.376 0.336,0.68 0.576,0.912 0.24,0.232 0.516,0.4 0.828,0.504 0.312,0.104 0.636,0.156 0.972,0.156 0.448,0 0.864,-0.072 1.248,-0.216 0.384,-0.144 0.72,-0.372 1.008,-0.684 0.288,-0.312 0.512,-0.708 0.672,-1.188 0.16,-0.48 0.24,-1.048 0.24,-1.704 v -5.856 h 2.16 v 11.376 z" style="fill:#0962ac" />
<path d="m 102.948,43.003 h 2.16 v 1.752 h 0.048 c 0.272,-0.608 0.744,-1.1 1.416,-1.476 0.672,-0.375 1.448,-0.564 2.328,-0.564 0.544,0 1.068,0.084 1.572,0.252 0.504,0.168 0.944,0.428 1.32,0.78 0.375,0.352 0.676,0.804 0.9,1.356 0.224,0.552 0.336,1.204 0.336,1.956 v 7.32 h -2.16 v -6.72 c 0,-0.528 -0.072,-0.979 -0.216,-1.356 -0.144,-0.375 -0.336,-0.68 -0.576,-0.912 -0.24,-0.232 -0.516,-0.4 -0.828,-0.504 -0.312,-0.104 -0.636,-0.156 -0.972,-0.156 -0.448,0 -0.864,0.072 -1.248,0.216 -0.384,0.144 -0.72,0.372 -1.008,0.684 -0.288,0.312 -0.512,0.708 -0.672,1.188 -0.16,0.48 -0.24,1.048 -0.24,1.704 v 5.856 h -2.16 V 43.003 z" style="fill:#0962ac" />
<path d="m 124.429,46.027 c -0.4,-0.416 -0.82,-0.732 -1.26,-0.948 -0.44,-0.216 -0.964,-0.324 -1.572,-0.324 -0.592,0 -1.108,0.108 -1.548,0.324 -0.44,0.216 -0.808,0.512 -1.104,0.888 -0.296,0.376 -0.521,0.808 -0.672,1.296 -0.152,0.488 -0.228,0.996 -0.228,1.524 0,0.528 0.088,1.028 0.264,1.5 0.176,0.472 0.424,0.884 0.744,1.236 0.32,0.352 0.704,0.628 1.152,0.828 0.448,0.2 0.952,0.3 1.512,0.3 0.608,0 1.128,-0.108 1.56,-0.324 0.432,-0.216 0.832,-0.532 1.2,-0.948 l 1.536,1.536 c -0.56,0.624 -1.212,1.072 -1.956,1.344 -0.744,0.272 -1.532,0.408 -2.364,0.408 -0.88,0 -1.685,-0.144 -2.412,-0.432 -0.729,-0.288 -1.356,-0.692 -1.884,-1.212 -0.528,-0.52 -0.936,-1.144 -1.224,-1.872 -0.288,-0.728 -0.432,-1.532 -0.432,-2.412 0,-0.879 0.144,-1.688 0.432,-2.424 0.288,-0.736 0.692,-1.368 1.212,-1.896 0.52,-0.528 1.144,-0.94 1.872,-1.236 0.728,-0.296 1.54,-0.444 2.436,-0.444 0.832,0 1.627,0.148 2.388,0.444 0.76,0.296 1.42,0.748 1.98,1.356 l -1.632,1.488 z" style="fill:#0962ac" />
<path d="m 127.524,38.923 c 0,-0.432 0.156,-0.804 0.468,-1.116 0.312,-0.312 0.684,-0.468 1.116,-0.468 0.432,0 0.804,0.156 1.116,0.468 0.312,0.312 0.468,0.684 0.468,1.116 0,0.432 -0.156,0.804 -0.468,1.116 -0.312,0.312 -0.684,0.468 -1.116,0.468 -0.432,0 -0.804,-0.156 -1.116,-0.468 -0.312,-0.312 -0.468,-0.684 -0.468,-1.116 z m 0.504,4.08 h 2.16 v 11.376 h -2.16 V 43.003 z" style="fill:#0962ac" />
<path d="m 133.788,36.235 h 2.16 v 18.144 h -2.16 V 36.235 z" style="fill:#0962ac" />
</g>
</svg>